HIERARCHY
ROOT Hips
{
	OFFSET 151.697800 93.143646 -72.043053
	CHANNELS 6 Xposition Yposition Zposition Zrotation Yrotation Xrotation 
	JOINT RightUpLeg
	{
		OFFSET 0.103458 1.857831 10.548505
		CHANNELS 3 Xrotation Yrotation Zrotation
		JOINT RightLeg
		{
			OFFSET 43.500000 -0.000031 0.000002
			CHANNELS 3 Xrotation Yrotation Zrotation
			JOINT RightFoot
			{
				OFFSET 42.372200 0.000023 0.000003
				CHANNELS 3 Xrotation Yrotation Zrotation
				JOINT RightToe
				{
					OFFSET 17.299997 -0.000001 -0.000010
					CHANNELS 3 Xrotation Yrotation Zrotation
					End Site
					{
						OFFSET 0.000000 0.000000 0.000000
					}
				}
			}
		}
	}
	JOINT LeftUpLeg
	{
		OFFSET 0.103457 1.857828 -10.548510
		CHANNELS 3 Xrotation Yrotation Zrotation
		JOINT LeftLeg
		{
			OFFSET 43.500046 -0.000015 0.000002
			CHANNELS 3 Xrotation Yrotation Zrotation
			JOINT LeftFoot
			{
				OFFSET 42.372261 -0.000008 0.000023
				CHANNELS 3 Xrotation Yrotation Zrotation
				JOINT LeftToe
				{
					OFFSET 17.299990 -0.000007 -0.000002
					CHANNELS 3 Xrotation Yrotation Zrotation
					End Site
					{
						OFFSET 0.000000 0.000000 0.000000
					}
				}
			}
		}
	}
	JOINT Spine
	{
		OFFSET 6.901967 -2.603726 -0.000001
		CHANNELS 3 Xrotation Yrotation Zrotation
		JOINT Spine1
		{
			OFFSET 12.588100 -0.000009 -0.000003
			CHANNELS 3 Xrotation Yrotation Zrotation
			JOINT Spine2
			{
				OFFSET 12.343202 0.000008 0.000008
				CHANNELS 3 Xrotation Yrotation Zrotation
				JOINT Neck
				{
					OFFSET 25.832897 -0.000015 -0.000004
					CHANNELS 3 Xrotation Yrotation Zrotation
					JOINT Head
					{
						OFFSET 11.766609 0.000013 -0.000006
						CHANNELS 3 Xrotation Yrotation Zrotation
						End Site
						{
							OFFSET 0.000000 0.000000 0.000000
						}
					}
				}
				JOINT RightShoulder
				{
					OFFSET 19.745911 -1.480373 6.000098
					CHANNELS 3 Xrotation Yrotation Zrotation
					JOINT RightArm
					{
						OFFSET 11.284123 -0.000007 -0.000032
						CHANNELS 3 Xrotation Yrotation Zrotation
						JOINT RightForeArm
						{
							OFFSET 33.000050 0.000005 0.000031
							CHANNELS 3 Xrotation Yrotation Zrotation
							JOINT RightHand
							{
								OFFSET 25.200008 0.000017 0.000013
								CHANNELS 3 Xrotation Yrotation Zrotation
								End Site
								{
									OFFSET 0.000000 0.000000 0.000000
								}
							}
						}
					}
				}
				JOINT LeftShoulder
				{
					OFFSET 19.746092 -1.480379 -6.000077
					CHANNELS 3 Xrotation Yrotation Zrotation
					JOINT LeftArm
					{
						OFFSET 11.284136 -0.000017 -0.000017
						CHANNELS 3 Xrotation Yrotation Zrotation
						JOINT LeftForeArm
						{
							OFFSET 33.000099 0.000019 0.000015
							CHANNELS 3 Xrotation Yrotation Zrotation
							JOINT LeftHand
							{
								OFFSET 25.199780 0.000140 0.000408
								CHANNELS 3 Xrotation Yrotation Zrotation
								End Site
								{
									OFFSET 0.000000 0.000000 0.000000
								}
							}
						}
					}
				}
			}
		}
	}
}
MOTION
Frames: 17
Frame Time: 0.033333
-283.270386 85.877243 75.801193 89.567091 -7.492951 85.490910 -177.024747 -0.638701 -173.604721 -27.567210 -2.825691 -3.411387 90.430557 2.619918 1.131226 21.454560 0.003109 0.000020 135.870781 -0.318498 175.118428 -14.944831 2.291900 2.304486 69.073355 -1.043562 2.111685 21.454553 -0.003091 0.000000 9.547468 -0.178533 -2.436789 9.085671 -0.165206 -4.879982 8.768834 -0.194784 -4.878900 0.892811 8.573132 10.921176 -22.894985 -10.439622 17.216033 -177.923819 -76.297297 -3.578253 -33.602775 47.557046 3.380161 -81.009759 -11.117098 2.726733 -1.755420 -0.558767 31.885973 -156.582606 78.201780 25.379016 14.512156 -50.226103 -44.852353 -52.256623 16.183945 -1.903624 10.087716 -1.199216 -19.873491 
-284.125397 85.343513 81.124100 89.326778 -7.437590 86.346193 -172.730512 -1.743705 -172.446062 -25.008316 -3.744356 -3.551096 86.235967 2.848595 1.357012 21.454563 0.003119 0.000016 136.229161 -0.089901 178.361087 -16.321925 2.306443 3.552745 70.221209 -1.152244 4.546170 21.454551 -0.003095 -0.000001 9.380638 0.072292 -2.625087 8.740684 0.342579 -5.237139 8.424036 0.310867 -5.239117 -0.744125 10.349004 10.743326 -21.977030 -10.780386 17.482298 -177.486618 -77.239870 -4.037225 -36.559482 48.556419 1.256595 -79.232804 -12.006106 2.711404 -1.393162 -0.078301 30.879357 -153.529006 78.025410 28.491685 17.143886 -48.112286 -46.278049 -49.719450 16.180814 -1.819918 9.642578 -1.193296 -19.780549 
-285.024811 84.613403 86.574600 88.687274 -6.815765 87.053397 -169.844156 -2.980092 -172.112134 -26.518891 -4.347036 -3.446716 81.761312 2.923886 1.585363 21.454560 0.003111 0.000018 137.133219 -0.349305 -176.023291 -21.580333 0.994872 2.585661 67.123746 0.303700 6.186816 21.454555 -0.003086 0.000002 9.231635 0.431331 -2.709593 8.425957 1.058661 -5.380747 8.109334 1.026064 -5.387014 -0.821786 10.353570 10.447311 -22.342966 -10.444737 17.093221 -176.696393 -77.119010 -4.841637 -38.000632 50.283651 -0.310497 -76.885657 -13.016823 2.680424 -0.990993 -0.771781 30.414084 -149.282705 77.747968 32.822614 18.528751 -46.554737 -46.538187 -46.556912 16.403387 -1.735615 10.345831 -1.483061 -19.512244 
-285.917114 84.047974 91.896019 87.554091 -6.044936 88.040408 -169.132546 -4.292878 -174.192104 -32.163446 -3.229773 -1.974237 77.234884 2.155561 2.368482 21.454558 0.003101 0.000019 138.601942 -1.007090 -172.959774 -25.787577 0.876720 2.669299 62.090921 -1.797932 0.583846 21.454551 -0.003092 -0.000000 9.124971 0.887317 -2.723870 8.192165 1.965062 -5.378851 7.875387 1.932441 -5.390575 -1.730556 9.632346 9.915380 -21.455077 -9.887421 16.135221 -175.835284 -76.707450 -5.715621 -38.579835 52.507851 -1.182443 -73.841134 -14.469817 2.651648 -1.253380 -1.906257 30.047853 -146.996394 76.910881 35.178896 18.627871 -45.617341 -45.287108 -42.362350 16.537462 -1.622140 12.094857 -0.825388 -18.094588 
-286.634491 83.540108 97.177940 86.477571 -5.121567 87.383617 -171.262130 -5.163090 -178.209252 -43.594943 -0.797438 -0.090198 73.059672 -0.231395 -1.047870 21.454562 0.003121 0.000012 139.004144 -1.866107 -173.542744 -32.846188 2.448284 2.988813 63.640144 -3.383766 -2.750636 21.454550 -0.003094 -0.000000 9.078399 1.200069 -2.362111 8.094126 2.562223 -4.635655 7.776821 2.534061 -4.650997 -2.328938 9.895932 9.474435 -21.103982 -9.933886 15.755153 -175.421019 -76.173316 -6.133200 -38.213983 54.869409 -0.818744 -69.944491 -16.143606 2.604570 -1.414056 -5.392362 27.449929 -149.115583 75.877965 33.051538 16.895726 -45.625647 -42.981773 -35.768717 16.758048 -1.466691 12.620152 0.789263 -14.366282 
-287.279694 83.618721 102.661598 86.391183 -3.328143 86.282290 -174.117368 -4.779498 179.720118 -55.295692 1.105905 0.042990 67.200442 -1.478693 -3.798428 21.454557 0.003108 0.000008 141.423138 -1.777896 -171.948851 -38.963948 2.483365 1.525788 69.028597 -2.502348 -3.768432 21.454551 -0.003096 -0.000001 9.234896 1.241910 -2.073598 8.412583 2.631114 -4.052455 8.094998 2.606491 -4.068254 -2.562529 9.459192 9.098445 -20.854719 -9.352682 15.035181 -174.811916 -74.565319 -6.740980 -36.302671 56.270271 1.296985 -64.920764 -18.149216 2.538748 -1.540694 -8.683383 23.031898 -152.280324 76.051547 29.815483 13.039209 -48.197879 -36.848628 -27.563503 15.629872 -1.224968 12.597474 3.036802 -9.681754 
-288.043915 84.317970 107.862801 86.095559 -1.829401 85.889103 -179.064064 -4.510800 -179.785605 -66.513031 1.643559 -1.014834 67.889239 -0.473398 -3.130240 21.454551 0.003107 0.000019 145.622966 -2.158905 -170.685785 -41.111308 2.006756 0.726452 73.542402 -1.854756 -4.130786 21.454553 -0.003087 -0.000001 9.304126 1.304603 -1.801211 8.555933 2.738690 -3.502011 8.238105 2.717359 -3.518477 -2.897523 8.445415 8.243086 -19.827016 -8.530672 13.538876 -173.563986 -73.640292 -8.012565 -35.149547 57.830276 4.139250 -57.725351 -19.835530 2.376078 -0.215044 -12.576906 15.110258 -155.729515 75.795251 26.298704 8.875059 -50.277419 -29.470600 -24.176874 14.372338 -1.089509 15.063304 3.121588 -10.367335 
-288.686310 85.824677 112.775002 86.482250 -1.055063 85.456513 174.650942 -3.450705 -179.559089 -74.652766 1.933862 -2.970144 70.725448 1.269705 -2.338345 21.454560 0.003106 0.000015 150.872363 -2.525093 -172.334839 -39.217549 2.470588 1.108682 76.070481 -2.021003 -4.094942 21.454551 -0.003088 -0.000000 9.172227 1.136739 -1.419353 8.304846 2.372304 -2.754079 7.986847 2.355489 -2.768349 -2.829361 8.286362 7.144588 -18.967698 -8.459532 12.266218 -172.370410 -73.426084 -9.235750 -33.913614 59.115800 7.293961 -49.184370 -20.086531 2.092985 2.811708 -14.231130 6.920970 -157.999283 75.009780 23.993430 5.437457 -52.142255 -26.652805 -25.313374 14.210787 -1.096720 13.996875 2.384521 -16.052237 
-289.131714 87.484528 117.475998 87.484751 -0.656466 84.673999 168.016930 -2.139009 178.920712 -78.874478 2.544887 -5.206052 70.437186 2.537331 -3.303819 21.454558 0.003112 0.000014 156.259961 -2.220594 -173.611265 -35.705237 2.521293 0.985693 77.272512 -1.844128 -3.942245 21.454555 -0.003092 -0.000001 8.925221 0.825564 -1.028580 7.823446 1.718680 -1.999291 7.505409 1.706436 -2.009626 -2.540233 6.962297 6.668193 -17.630081 -7.545687 11.025502 -171.785514 -72.538378 -9.832226 -30.026526 59.225848 11.838297 -42.227750 -19.140125 1.817127 6.967511 -12.662230 0.205950 -157.128693 75.663442 24.871478 0.420686 -55.449313 -28.384629 -27.133903 14.724746 -1.159675 9.992884 3.032478 -17.561682 
-289.563904 88.980988 122.135399 88.322829 -0.395029 83.524594 161.849351 -1.696109 176.722785 -79.931081 2.697299 -7.055861 70.560758 3.746663 -3.709255 21.454560 0.003116 0.000020 161.859897 -2.062189 -174.939764 -31.158036 2.418355 0.825037 77.700662 -1.642308 -3.678642 21.454553 -0.003093 -0.000001 8.677972 0.516381 -0.641086 7.337572 1.072307 -1.248244 7.019502 1.064612 -1.254710 -2.474396 5.635457 6.337924 -15.948750 -6.841699 10.025296 -170.949608 -71.928879 -10.689393 -24.441748 59.136338 16.998903 -36.451685 -18.027535 1.592168 8.776601 -9.728378 -2.580287 -159.299327 76.604731 22.637979 -5.802060 -58.169320 -29.685962 -30.483042 15.004916 -1.239425 7.780505 7.023917 -15.561978 
-290.002014 89.972794 126.709602 88.906100 -0.498151 82.120908 155.964692 -2.140696 174.463235 -78.308672 2.422689 -8.092313 71.175127 4.428368 -4.030927 21.454565 0.003111 0.000018 166.729016 -1.884593 -176.704808 -27.048562 2.704841 0.832961 78.136415 -1.603593 -3.551081 21.454551 -0.003071 0.000001 8.394062 0.251385 -0.236313 6.774309 0.516197 -0.457559 6.456216 0.513296 -0.460676 -2.513201 4.049626 6.333295 -14.206853 -5.593455 9.149880 -169.843008 -71.551334 -11.827162 -18.172343 58.628800 22.134165 -32.167985 -16.915433 1.422812 9.792296 -7.187103 -1.205661 -163.829109 77.273250 18.007915 -13.475790 -59.341271 -28.332835 -35.490216 15.401931 -1.372465 6.673486 7.672209 -12.558666 
-290.394989 90.486809 131.357605 89.364802 -0.160926 80.531892 151.653818 -2.971792 172.779170 -73.994930 1.323087 -8.468034 71.048297 4.671334 -4.291542 21.454550 0.003107 0.000019 171.633980 -1.346290 -178.296119 -23.714169 3.127730 0.656569 78.806142 -1.468042 -3.565406 21.454550 -0.003088 0.000000 8.273598 -0.003798 0.161260 6.534318 -0.016616 0.322054 6.216217 -0.014808 0.322149 -2.728535 3.291048 6.441829 -12.765061 -5.700664 9.055496 -167.774608 -71.221436 -13.956668 -12.208091 57.477504 27.371406 -29.221646 -15.862807 1.296140 9.929348 -4.622900 2.374341 -168.508184 78.015623 13.234595 -22.552180 -59.725660 -23.184760 -40.946523 15.468487 -1.513448 4.352502 6.480723 -12.210407 
-290.812988 90.443428 136.010895 89.241694 -0.138629 78.903800 148.188003 -4.623504 171.636206 -67.548945 -0.161496 -8.084385 71.166186 4.719300 -3.474552 21.454551 0.003113 0.000016 175.663846 -1.195298 -179.189057 -21.664317 3.294073 0.148376 79.944140 -1.089754 -3.593347 21.454550 -0.003097 -0.000000 8.148013 -0.073400 0.541615 6.282353 -0.175927 1.078447 5.964324 -0.169538 1.079481 -2.983038 2.462629 7.029058 -11.947503 -5.637726 9.415425 -164.930586 -70.686092 -16.888819 -6.302551 55.924554 33.171312 -27.882557 -15.544112 1.251025 9.315484 -1.846937 7.050958 -172.704420 78.873829 8.964274 -32.686099 -58.758383 -16.790319 -46.638816 15.588973 -1.684250 3.368208 5.127883 -12.899031 
-291.217407 90.063393 140.710907 88.955762 -0.227550 77.565097 145.964284 -6.060698 170.801994 -58.374963 -1.323868 -7.436782 71.288358 4.394560 -3.201007 21.454555 0.003115 0.000017 179.422690 -1.013796 179.409672 -20.065001 3.686549 0.067804 81.221809 -0.979342 -3.485146 21.454553 -0.003089 0.000000 8.052003 -0.060108 0.824524 6.090003 -0.163280 1.644775 5.772047 -0.153478 1.645721 -3.702885 1.451284 7.757336 -10.417403 -5.256764 9.735455 -162.505801 -70.067605 -19.394170 -0.602504 54.041106 39.223963 -27.755416 -15.716520 1.259744 8.359234 0.218090 11.328785 -177.111982 79.718450 4.490930 -42.357814 -56.270971 -10.879609 -51.510107 15.699945 -1.846333 1.929673 4.559948 -17.009227 
-291.548706 89.498688 145.488205 88.789871 -0.216548 76.566803 145.899165 -6.540692 170.463326 -45.288765 -2.191606 -6.459093 70.869797 4.006851 -2.328177 21.454555 0.003104 0.000017 -176.577793 -0.478892 177.461989 -18.212025 4.276398 0.434930 82.325677 -1.146132 -3.184628 21.454548 -0.003097 0.000000 8.026113 -0.047998 1.004309 6.038095 -0.148041 2.004764 5.720213 -0.136061 2.005616 -4.071573 0.826585 8.372748 -10.053798 -5.459634 10.263099 -160.516303 -69.956997 -21.447540 4.763547 52.648840 44.902780 -28.150577 -16.128214 1.293133 8.001035 1.564008 13.503681 179.263601 80.625773 0.825501 -51.014379 -52.910064 -5.476230 -55.543501 15.726161 -1.986021 -0.573420 5.265453 -21.446536 
-291.856995 88.785271 150.383408 88.825429 -0.048978 75.830700 147.543971 -6.136698 171.492280 -29.825790 -2.904276 -6.217673 69.324583 3.823649 -2.394126 21.454558 0.003126 0.000018 -172.194574 0.483599 175.863806 -15.977638 4.824999 0.795252 83.304573 -1.259300 -2.633142 21.454553 -0.003094 0.000000 8.024883 -0.079918 1.110793 6.034839 -0.217339 2.215914 5.716986 -0.204091 2.217194 -3.979832 0.773004 8.871607 -10.264443 -5.986686 10.927305 -158.134397 -70.249766 -23.898632 9.819810 52.009947 48.898062 -28.390135 -16.254269 1.305569 7.590416 1.894493 14.128893 175.590421 81.035550 -2.890266 -57.361595 -48.951392 -1.338058 -59.469829 15.785752 -2.132200 -1.538451 4.619917 -27.529996 
-292.113800 87.881363 155.425995 88.825401 0.223737 75.235504 149.804954 -5.718090 176.265066 -15.738706 -4.049105 -8.502183 68.094609 5.100420 -3.597430 21.454558 0.003103 0.000015 -168.025932 1.495406 174.741442 -14.493018 5.183994 1.088259 83.703654 -1.380630 -2.254739 21.454551 -0.003093 0.000002 8.011769 -0.091637 1.200251 6.008153 -0.245130 2.394135 5.690347 -0.230817 2.395569 -3.362080 0.717363 9.184993 -10.356941 -6.883597 11.513618 -155.947685 -70.499143 -26.146859 14.609394 51.518580 51.638990 -28.896618 -16.285596 1.316990 7.438185 2.116747 12.745731 173.029278 81.563244 -5.471215 -62.116930 -45.627320 2.035007 -62.612938 15.948633 -2.262306 -2.698312 4.758098 -30.939784 
